<svg width="11" height="25" viewBox="0 0 11 25" fill="none" xmlns="http://www.w3.org/2000/svg">
<path d="M0 12.3495C0 11.8637 0.0310387 11.3855 0.0853959 10.9141H6.4611C6.35033 11.375 6.29015 11.8552 6.29015 12.3495C6.29015 12.8437 6.35033 13.324 6.4611 13.7848H0.0853959C0.0310387 13.3136 0 12.8352 0 12.3495ZM0.297783 9.65368C0.616205 8.21944 1.18262 6.87847 1.95024 5.67678L5.92729 9.65368H0.297783ZM5.92729 15.0453L1.95024 19.0223C1.18262 17.8205 0.616048 16.4795 0.297783 15.0453H5.92729ZM9.73954 5.84284L5.76186 1.86516C6.96386 1.09738 8.30499 0.53081 9.73954 0.212387V5.84284ZM4.72135 2.6071L9.22591 7.11165C8.40078 7.61914 7.70422 8.3157 7.19689 9.14083L2.69218 4.63627C3.28869 3.88457 3.96949 3.20361 4.72135 2.6071ZM2.69218 20.0628L7.19689 15.5583C7.70422 16.3834 8.40078 17.0801 9.22591 17.5875L4.72135 22.092C3.96965 21.4955 3.28869 20.8145 2.69218 20.0628ZM9.73954 18.8563V24.4867C8.30499 24.1683 6.96371 23.6017 5.76186 22.8339L9.73954 18.8563Z" fill="white"/>
</svg>
